<svg width="34" height="67" viewBox="0 0 34 67" fill="none" xmlns="http://www.w3.org/2000/svg">
<path d="M0.25 33.5C2.44961 33.5 4.62769 33.0668 6.65986 32.225C8.69204 31.3832 10.5385 30.1494 12.0939 28.594C13.6492 27.0387 14.883 25.1922 15.7248 23.16C16.5665 21.1277 16.9998 18.9496 16.9998 16.75H0.250001L0.25 33.5Z" fill="#C28566"/>
<path d="M33.7498 33.5C31.5502 33.5 29.3721 33.9333 27.3399 34.775C25.3077 35.6168 23.4613 36.8506 21.9059 38.406C20.3505 39.9613 19.1168 41.8079 18.275 43.8401C17.4332 45.8723 17 48.0504 17 50.25L33.7498 50.25L33.7498 33.5Z" fill="#C28566"/>
<path d="M0.25 67C2.44961 67 4.62769 66.5668 6.65986 65.725C8.69204 64.8832 10.5385 63.6494 12.0939 62.0941C13.6492 60.5387 14.883 58.6922 15.7248 56.66C16.5665 54.6278 16.9998 52.4496 16.9998 50.25C16.9998 48.0504 16.5665 45.8723 15.7248 43.8401C14.883 41.8079 13.6492 39.9613 12.0939 38.406C10.5385 36.8506 8.69204 35.6168 6.65986 34.775C4.62769 33.9333 2.44961 33.5 0.25 33.5V67Z" fill="#C28566"/>
<path d="M33.7498 0C31.5502 9.61494e-08 29.3721 0.433252 27.3399 1.27502C25.3077 2.11679 23.4613 3.35058 21.9059 4.90596C20.3505 6.46135 19.1168 8.30785 18.275 10.3401C17.4332 12.3723 17 14.5504 17 16.75C17 18.9497 17.4332 21.1278 18.275 23.16C19.1168 25.1922 20.3505 27.0387 21.9059 28.5941C23.4613 30.1494 25.3077 31.3832 27.3399 32.225C29.3721 33.0668 31.5502 33.5 33.7498 33.5L33.7498 0Z" fill="#C28566"/>
</svg>
