<svg width="231" height="40" viewBox="0 0 231 40" fill="none" xmlns="http://www.w3.org/2000/svg">
<path d="M0 20C1.3132 20 2.61354 19.7413 3.82678 19.2388C5.04002 18.7362 6.1424 17.9997 7.07097 17.0711C7.99955 16.1425 8.73613 15.0401 9.23867 13.8268C9.74121 12.6136 9.99987 11.3132 9.99987 10H4.37108e-07L0 20Z" fill="#C28566"/>
<path d="M19.9999 20C18.6867 20 17.3863 20.2587 16.1731 20.7612C14.9598 21.2638 13.8575 22.0003 12.9289 22.9289C12.0003 23.8575 11.2637 24.9599 10.7612 26.1732C10.2587 27.3864 10 28.6868 10 30L19.9999 30L19.9999 20Z" fill="#C28566"/>
<path d="M0 40C1.3132 40 2.61354 39.7413 3.82678 39.2388C5.04002 38.7362 6.1424 37.9997 7.07097 37.0711C7.99955 36.1425 8.73613 35.0401 9.23867 33.8268C9.74121 32.6136 9.99987 31.3132 9.99987 30C9.99987 28.6868 9.74121 27.3864 9.23867 26.1732C8.73613 24.9599 7.99955 23.8575 7.07097 22.9289C6.1424 22.0003 5.04002 21.2638 3.82678 20.7612C2.61354 20.2587 1.3132 20 0 20V40Z" fill="#C28566"/>
<path d="M19.9999 0C18.6867 5.74026e-08 17.3863 0.258658 16.1731 0.761205C14.9598 1.26375 13.8575 2.00035 12.9289 2.92893C12.0003 3.85752 11.2637 4.95991 10.7612 6.17317C10.2587 7.38642 10 8.68678 10 10C10 11.3132 10.2587 12.6136 10.7612 13.8268C11.2637 15.0401 12.0003 16.1425 12.9289 17.0711C13.8575 17.9997 14.9598 18.7363 16.1731 19.2388C17.3863 19.7413 18.6867 20 19.9999 20L19.9999 0Z" fill="#C28566"/>
<path d="M43.8076 8.58465V11.9604H37.0925V33.8117H32.9545V11.9604H26.2031V8.58465H43.8076Z" fill="#4B3D36"/>
<path d="M74.4958 13.8116L68.2889 33.8117H63.9331L59.9041 19.0385L55.875 33.8117H51.5192L45.276 13.8116H49.4866L53.6608 29.8915L57.9077 13.8116H62.2271L66.2925 29.8189L70.4305 13.8116H74.4958Z" fill="#4B3D36"/>
<path d="M79.3306 11.1618C78.5804 11.1618 77.9512 10.9077 77.4431 10.3995C76.9349 9.89138 76.6808 9.26221 76.6808 8.51205C76.6808 7.7619 76.9349 7.13273 77.4431 6.62456C77.9512 6.11639 78.5804 5.8623 79.3306 5.8623C80.0565 5.8623 80.6736 6.11639 81.1817 6.62456C81.6899 7.13273 81.944 7.7619 81.944 8.51205C81.944 9.26221 81.6899 9.89138 81.1817 10.3995C80.6736 10.9077 80.0565 11.1618 79.3306 11.1618ZM81.3632 13.8116V33.8117H77.2253V13.8116H81.3632Z" fill="#4B3D36"/>
<path d="M96.5239 13.4849C98.0968 13.4849 99.5003 13.8116 100.734 14.4649C101.993 15.1183 102.973 16.0862 103.675 17.3688C104.376 18.6513 104.727 20.2 104.727 22.0149V33.8117H100.626V22.632C100.626 20.8413 100.178 19.474 99.2825 18.5303C98.3872 17.5623 97.1651 17.0784 95.6164 17.0784C94.0677 17.0784 92.8336 17.5623 91.914 18.5303C91.0187 19.474 90.571 20.8413 90.571 22.632V33.8117H86.433V13.8116H90.571V16.0983C91.2486 15.2756 92.1076 14.6343 93.1482 14.1745C94.2129 13.7148 95.3381 13.4849 96.5239 13.4849Z" fill="#4B3D36"/>
<path d="M136.213 8.58465V33.8117H132.075V16.5339L124.379 33.8117H121.512L113.78 16.5339V33.8117H109.642V8.58465H114.107L122.964 28.367L131.784 8.58465H136.213Z" fill="#4B3D36"/>
<path d="M143.394 11.1618C142.643 11.1618 142.014 10.9077 141.506 10.3995C140.998 9.89138 140.744 9.26221 140.744 8.51205C140.744 7.7619 140.998 7.13273 141.506 6.62456C142.014 6.11639 142.643 5.8623 143.394 5.8623C144.12 5.8623 144.737 6.11639 145.245 6.62456C145.753 7.13273 146.007 7.7619 146.007 8.51205C146.007 9.26221 145.753 9.89138 145.245 10.3995C144.737 10.9077 144.12 11.1618 143.394 11.1618ZM145.426 13.8116V33.8117H141.288V13.8116H145.426Z" fill="#4B3D36"/>
<path d="M160.587 13.4849C162.16 13.4849 163.563 13.8116 164.797 14.4649C166.056 15.1183 167.036 16.0862 167.738 17.3688C168.439 18.6513 168.79 20.2 168.79 22.0149V33.8117H164.689V22.632C164.689 20.8413 164.241 19.474 163.346 18.5303C162.45 17.5623 161.228 17.0784 159.679 17.0784C158.131 17.0784 156.897 17.5623 155.977 18.5303C155.082 19.474 154.634 20.8413 154.634 22.632V33.8117H150.496V13.8116H154.634V16.0983C155.312 15.2756 156.171 14.6343 157.211 14.1745C158.276 13.7148 159.401 13.4849 160.587 13.4849Z" fill="#4B3D36"/>
<path d="M172.326 23.7209C172.326 21.7124 172.738 19.9338 173.56 18.3851C174.407 16.8364 175.545 15.6385 176.972 14.7916C178.424 13.9204 180.033 13.4849 181.8 13.4849C183.107 13.4849 184.389 13.7753 185.648 14.356C186.93 14.9126 187.946 15.6627 188.697 16.6065V6.95124H192.871V33.8117H188.697V30.799C188.019 31.7669 187.075 32.5655 185.865 33.1947C184.68 33.8238 183.312 34.1384 181.764 34.1384C180.021 34.1384 178.424 33.7028 176.972 32.8317C175.545 31.9363 174.407 30.7022 173.56 29.1293C172.738 27.5322 172.326 25.7294 172.326 23.7209ZM188.697 23.7935C188.697 22.4142 188.406 21.2163 187.825 20.2C187.269 19.1836 186.531 18.4093 185.611 17.8769C184.692 17.3446 183.7 17.0784 182.635 17.0784C181.57 17.0784 180.578 17.3446 179.658 17.8769C178.739 18.3851 177.989 19.1474 177.408 20.1637C176.851 21.1558 176.573 22.3416 176.573 23.7209C176.573 25.1002 176.851 26.3101 177.408 27.3507C177.989 28.3912 178.739 29.1898 179.658 29.7463C180.602 30.2787 181.594 30.5449 182.635 30.5449C183.7 30.5449 184.692 30.2787 185.611 29.7463C186.531 29.214 187.269 28.4396 187.825 27.4233C188.406 26.3827 188.697 25.1728 188.697 23.7935Z" fill="#4B3D36"/>
<path d="M216.273 23.3216C216.273 24.0718 216.225 24.7493 216.128 25.3543H200.847C200.968 26.9514 201.561 28.2339 202.625 29.2019C203.69 30.1698 204.997 30.6538 206.545 30.6538C208.772 30.6538 210.345 29.7222 211.264 27.8589H215.729C215.124 29.698 214.023 31.2104 212.426 32.3961C210.853 33.5576 208.893 34.1384 206.545 34.1384C204.634 34.1384 202.916 33.7149 201.391 32.868C199.891 31.9968 198.705 30.7869 197.834 29.2382C196.987 27.6653 196.564 25.8504 196.564 23.7935C196.564 21.7366 196.975 19.9338 197.798 18.3851C198.645 16.8122 199.818 15.6023 201.319 14.7553C202.843 13.9083 204.585 13.4849 206.545 13.4849C208.433 13.4849 210.115 13.8962 211.591 14.719C213.067 15.5418 214.216 16.7033 215.039 18.2036C215.862 19.6797 216.273 21.3857 216.273 23.3216ZM211.954 22.0149C211.93 20.4904 211.385 19.2683 210.32 18.3488C209.256 17.4292 207.937 16.9695 206.364 16.9695C204.936 16.9695 203.714 17.4292 202.698 18.3488C201.682 19.2441 201.077 20.4662 200.883 22.0149H211.954Z" fill="#4B3D36"/>
<path d="M224.12 16.7154C224.725 15.699 225.524 14.9126 226.516 14.356C227.532 13.7753 228.73 13.4849 230.11 13.4849V17.768H229.057C227.436 17.768 226.202 18.1794 225.355 19.0022C224.532 19.8249 224.12 21.2526 224.12 23.2853V33.8117H219.983V13.8116H224.12V16.7154Z" fill="#4B3D36"/>
</svg>
